<?xml version="1.0" standalone="no"?>
<!DOCTYPE svg PUBLIC "-//W3C//DTD SVG 20010904//EN"
 "http://www.w3.org/TR/2001/REC-SVG-20010904/DTD/svg10.dtd">
<svg version="1.0" xmlns="http://www.w3.org/2000/svg"
 width="1600.000000pt" height="1600.000000pt" viewBox="0 0 1600.000000 1600.000000"
 preserveAspectRatio="xMidYMid meet">
<metadata>
Created by potrace 1.14, written by Peter Selinger 2001-2017
</metadata>
<g transform="translate(0.000000,1600.000000) scale(0.100000,-0.100000)"
fill="#000000" stroke="none">
<path d="M7708 14395 c-2 -1 -61 -6 -133 -9 -71 -4 -143 -9 -160 -11 -16 -2
-61 -7 -100 -10 -38 -3 -81 -8 -95 -10 -14 -2 -50 -6 -80 -10 -68 -8 -117 -14
-150 -20 -14 -3 -42 -8 -64 -11 -21 -3 -48 -7 -60 -10 -11 -2 -64 -11 -116
-20 -52 -9 -153 -29 -224 -45 -70 -16 -138 -31 -150 -33 -11 -3 -30 -7 -41
-10 -25 -5 -157 -41 -209 -56 -21 -7 -46 -13 -55 -15 -9 -2 -93 -28 -187 -59
-208 -67 -466 -165 -661 -252 -81 -36 -163 -72 -183 -80 -19 -9 -42 -19 -50
-24 -8 -5 -69 -36 -135 -69 -264 -132 -777 -445 -902 -551 -7 -6 -27 -20 -45
-33 -69 -46 -339 -261 -388 -307 -9 -8 -43 -37 -76 -65 -149 -125 -498 -472
-629 -625 -95 -111 -150 -176 -155 -180 -3 -3 -28 -34 -55 -70 -55 -72 -68
-88 -106 -134 -45 -54 -242 -337 -309 -444 -36 -56 -82 -128 -102 -160 -21
-31 -41 -64 -45 -72 -3 -8 -31 -58 -61 -110 -132 -229 -323 -630 -404 -845
-16 -44 -33 -89 -38 -100 -16 -36 -62 -156 -64 -168 -2 -7 -6 -19 -9 -27 -3
-8 -28 -85 -55 -170 -54 -168 -113 -380 -137 -490 -2 -8 -17 -76 -34 -150 -16
-74 -37 -178 -45 -230 -9 -52 -18 -106 -21 -120 -12 -62 -15 -77 -19 -115 -3
-22 -8 -65 -11 -95 -3 -30 -8 -66 -10 -80 -6 -37 -15 -117 -20 -169 -9 -106
-18 -230 -21 -281 -5 -89 -5 -670 1 -735 2 -33 7 -98 10 -145 3 -47 7 -106 10
-132 11 -105 16 -154 20 -178 2 -14 7 -50 10 -80 3 -30 8 -66 10 -80 2 -14 9
-54 14 -90 6 -36 13 -75 15 -86 2 -12 7 -37 10 -55 3 -19 8 -45 11 -59 2 -13
7 -42 10 -65 4 -22 13 -67 22 -100 8 -33 17 -71 20 -85 7 -40 43 -191 59 -245
7 -27 23 -84 35 -125 130 -471 379 -1070 607 -1465 6 -11 36 -63 65 -115 30
-52 82 -138 115 -190 34 -52 69 -108 78 -125 52 -94 371 -521 504 -675 235
-272 510 -551 740 -750 41 -36 80 -70 86 -76 6 -5 31 -26 54 -45 24 -18 57
-46 74 -60 66 -54 245 -188 326 -244 47 -33 87 -62 90 -65 11 -14 362 -237
394 -251 12 -5 36 -18 54 -29 17 -11 47 -29 65 -39 63 -38 524 -268 622 -310
287 -125 649 -253 930 -331 153 -43 498 -123 570 -133 22 -4 81 -13 130 -22
50 -9 104 -18 120 -21 17 -2 41 -6 55 -9 14 -2 54 -7 90 -10 36 -4 79 -8 95
-10 17 -2 62 -6 100 -10 39 -3 84 -8 100 -10 190 -26 887 -27 1160 0 17 1 68
6 115 10 47 4 92 8 100 10 8 1 44 6 80 10 36 3 76 8 90 10 14 2 45 7 70 10
212 30 570 107 795 170 72 20 146 41 165 46 64 16 353 116 500 173 270 105
683 298 850 396 28 17 52 30 54 30 7 0 180 103 296 176 160 101 402 269 505
351 44 35 85 66 90 71 58 42 171 138 345 291 130 114 450 440 580 591 305 352
564 716 789 1108 85 148 241 449 279 538 12 28 35 82 52 120 18 38 38 83 45
99 23 53 95 240 95 248 0 4 6 20 14 35 12 24 134 382 140 414 2 7 6 20 9 28
33 84 157 616 172 735 3 22 7 47 10 55 8 29 32 186 40 265 6 60 8 77 19 150 4
22 9 69 11 105 2 36 7 101 11 145 3 44 8 100 10 125 5 71 5 723 0 748 -3 12
-8 70 -11 130 -9 149 -21 263 -40 392 -3 19 -8 55 -10 80 -3 25 -12 86 -21
135 -8 50 -17 104 -20 120 -8 48 -34 177 -44 220 -5 22 -19 83 -30 135 -46
207 -169 615 -235 785 -13 33 -44 114 -70 180 -182 471 -473 1011 -776 1438
-387 546 -865 1046 -1389 1457 -36 28 -74 58 -85 68 -11 9 -83 61 -160 115
-77 54 -149 105 -160 113 -11 7 -72 46 -135 85 -63 40 -131 82 -150 94 -120
78 -535 297 -690 364 -30 13 -83 37 -117 52 -224 102 -672 262 -886 318 -43
11 -81 22 -85 25 -6 3 -293 72 -345 82 -10 2 -26 5 -35 8 -25 8 -421 75 -478
82 -27 3 -60 7 -74 9 -14 2 -50 7 -80 10 -30 3 -66 8 -80 10 -14 2 -74 7 -134
10 -60 4 -118 9 -130 12 -22 5 -723 13 -728 8z"/>
</g>
</svg>
